<svg width="33" height="32" viewBox="0 0 33 32" fill="none" xmlns="http://www.w3.org/2000/svg">
<g clip-path="url(#clip0_58_56)">
<path d="M22.5 10H20.5C20.5 7.79 18.71 6 16.5 6C14.29 6 12.5 7.79 12.5 10H10.5C9.4 10 8.5 10.9 8.5 12V24C8.5 25.1 9.4 26 10.5 26H22.5C23.6 26 24.5 25.1 24.5 24V12C24.5 10.9 23.6 10 22.5 10ZM16.5 8C17.6 8 18.5 8.9 18.5 10H14.5C14.5 8.9 15.4 8 16.5 8ZM22.5 24H10.5V12H12.5V14C12.5 14.55 12.95 15 13.5 15C14.05 15 14.5 14.55 14.5 14V12H18.5V14C18.5 14.55 18.95 15 19.5 15C20.05 15 20.5 14.55 20.5 14V12H22.5V24Z" fill="#9F9F9F"/>
</g>
<defs>
<clipPath id="clip0_58_56">
<rect width="24" height="24" fill="white" transform="translate(4.5 4)"/>
</clipPath>
</defs>
</svg>
