<svg width="22" height="22" viewBox="0 0 22 22" fill="none" xmlns="http://www.w3.org/2000/svg">
<path fill-rule="evenodd" clip-rule="evenodd" d="M4.60465 11.0001C4.60465 10.2856 4.72591 9.60058 4.94233 8.95808L1.15423 6.12708C0.415953 7.59408 0 9.24708 0 11.0001C0 12.7516 0.415442 14.4036 1.1527 15.8696L4.93874 13.0331C4.72437 12.3936 4.60465 11.7111 4.60465 11.0001Z" fill="#FBBC05"/>
<path fill-rule="evenodd" clip-rule="evenodd" d="M11.2558 4.5C12.8419 4.5 14.2744 5.05 15.4 5.95L18.6744 2.75C16.6791 1.05 14.1209 0 11.2558 0C6.80772 0 2.98484 2.4895 1.15424 6.127L4.94233 8.958C5.81517 6.365 8.30321 4.5 11.2558 4.5Z" fill="#EB4335"/>
<path fill-rule="evenodd" clip-rule="evenodd" d="M11.2558 17.5001C8.30321 17.5001 5.81517 15.6351 4.94233 13.0421L1.15424 15.8726C2.98484 19.5106 6.80772 22.0001 11.2558 22.0001C14.0012 22.0001 16.6223 21.0461 18.5895 19.2586L14.9938 16.5381C13.9792 17.1636 12.7017 17.5001 11.2558 17.5001Z" fill="#34A853"/>
<path fill-rule="evenodd" clip-rule="evenodd" d="M21.9999 10.9998C21.9999 10.3498 21.8975 9.64976 21.744 8.99976H11.2557V13.2498H17.2929C16.991 14.6988 16.1694 15.8128 14.9936 16.5378L18.5894 19.2583C20.6558 17.3813 21.9999 14.5853 21.9999 10.9998Z" fill="#4285F4"/>
</svg>
