<svg width="215" height="201" viewBox="0 0 215 201" fill="none" xmlns="http://www.w3.org/2000/svg">
<path fill-rule="evenodd" clip-rule="evenodd" d="M31.709 2.08995C30.1406 2.85582 29.6747 3.67923 29.9399 5.21563C30.0719 5.98018 31.8819 8.57577 32.7067 9.18352C32.9566 9.36771 33.2446 8.35056 33.7149 5.6256C34.0768 3.52706 34.385 1.72696 34.3993 1.62565C34.4598 1.19926 33.0272 1.44652 31.709 2.08995ZM39.1255 3.52206C35.7812 5.65549 33.8185 9.32016 33.9282 13.2259C33.9918 15.4866 35.6639 19.489 37.5837 21.9753C37.8687 22.3444 39.0269 23.8574 40.1574 25.3375C41.2879 26.8175 42.6108 28.5284 43.0973 29.1392C43.5838 29.7501 44.0469 30.3554 44.1266 30.4842C45.5425 32.7743 45.9819 33.6866 46.1022 34.5847C46.2762 35.8854 45.7888 37.5564 44.8982 38.7133C43.638 40.3497 43.7507 40.5261 47.0333 42.052C49.3952 43.1499 50.051 43.5791 50.2754 44.1741C50.5721 44.9606 50.6492 46.3961 50.4131 46.739C50.3363 46.8506 50.2626 47.726 50.2497 48.6841C50.2367 49.6423 50.1318 50.8067 50.0169 51.2718C49.9019 51.737 49.8344 52.1877 49.8666 52.2731C49.9936 52.6097 49.1275 62.6379 48.8953 63.5184C48.647 64.4611 47.7399 65.819 47.8969 65.013C47.9535 64.7224 47.8159 64.7333 47.3506 65.0565C46.0651 65.9487 39.6643 66.4768 39.8201 65.6776C39.854 65.5034 39.7945 65.4744 39.6878 65.6131C39.5808 65.7517 38.575 65.5987 37.4525 65.2732C36.33 64.9476 34.9259 64.5659 34.3322 64.4253C33.7384 64.2845 33.1269 64.0278 32.973 63.8548C32.8191 63.6817 32.5405 63.5976 32.3538 63.6681C32.167 63.7385 31.8131 63.6444 31.5674 63.4592C31.2496 63.2197 31.1166 63.2275 31.1068 63.4862C31.0971 63.7498 30.9336 63.8291 30.5138 63.7738C30.026 63.7096 29.8229 63.9688 29.231 65.4109C28.8444 66.3534 28.3602 67.2568 28.1551 67.4188C27.9501 67.5808 27.7376 68.0529 27.6832 68.4681C27.6287 68.883 27.4247 69.2828 27.2299 69.3563C27.0348 69.4299 26.7685 69.7265 26.638 70.0156C26.5074 70.3046 26.2501 70.5117 26.0659 70.4757C25.8674 70.4368 25.8495 70.5013 26.0217 70.634C26.1903 70.7642 26.1581 70.9161 25.9451 70.9965C25.4983 71.1651 25.4443 72.0428 25.8888 71.9072C26.0625 71.8541 25.9347 72.0433 25.6052 72.327C25.2759 72.611 25.0669 73.0044 25.1413 73.2014C25.2157 73.3986 25.1243 73.6171 24.9385 73.6872C24.7526 73.7574 24.2229 74.7371 23.7617 75.8644C23.3004 76.9917 22.864 77.9362 22.7918 77.9635C22.5191 78.0664 21.0336 81.4435 21.1385 81.7215C21.1989 81.8815 21.0154 82.1001 20.7306 82.2075C20.2449 82.3907 19.507 83.7535 19.4849 84.5083C19.4782 84.7431 19.3482 84.7621 19.0637 84.5696C18.6983 84.3224 18.6672 84.3341 18.784 84.6751C18.8841 84.9687 18.7842 84.9763 18.3588 84.7081C18.053 84.515 17.8465 84.4736 17.9001 84.6157C18.007 84.8989 21.9487 86.6331 24.77 87.6383L26.5533 88.2736L25.0158 89.6878C22.8832 91.6495 19.777 92.7205 16.9867 92.4559C15.2179 92.288 11.7147 91.307 10.3407 90.5947C9.79344 90.311 10.2689 90.3768 11.5591 90.7634C13.7529 91.4206 16.4555 91.9087 16.9235 91.7321C17.0716 91.6763 16.9738 91.5508 16.7062 91.453C16.4387 91.3555 16.2664 91.2798 16.3238 91.285C16.5864 91.3093 17.2767 89.6395 17.336 88.8357C17.433 87.5217 17.1172 85.7066 16.7407 85.4165C16.5604 85.2776 16.4355 85.0483 16.4629 84.9074C16.4905 84.7664 16.3884 84.7336 16.236 84.8347C16.0839 84.9357 15.8422 84.8821 15.6991 84.7154C15.5295 84.5177 15.5726 84.4382 15.8222 84.487C16.1211 84.5455 16.0962 84.4665 15.71 84.1284C15.4373 83.8898 15.1314 83.8021 15.0303 83.9336C14.929 84.0651 14.7668 83.9674 14.6699 83.7165C14.5214 83.3329 14.4782 83.3347 14.3973 83.7278C14.3208 84.0998 14.2131 84.1549 13.8692 83.9992C13.6314 83.8916 13.1192 83.9234 12.7308 84.0699C12.0618 84.3223 12.0122 84.2841 11.788 83.3423C11.6578 82.7958 11.5616 82.0082 11.5745 81.5926C11.5935 80.9802 11.3552 80.5605 10.3195 79.3807C8.73176 77.5725 7.2376 74.3609 7.2896 72.868L7.32426 71.8748L5.99916 72.561C1.63669 74.82 -0.198856 78.7475 1.02551 83.2036C2.44504 88.3707 9.03014 92.6456 16.8147 93.4538C20.5945 93.8461 24.3601 92.6075 26.3961 90.3018C27.008 89.6091 27.5879 88.9645 27.6848 88.8696C27.7817 88.7744 27.6795 89.5923 27.4573 90.6869C27.0394 92.7462 27.0984 94.7874 27.6417 97.0771L27.9562 98.4028L28.5901 95.7083C29.3258 92.5798 29.9342 90.9923 30.7464 90.0799C31.0654 89.7218 31.2986 89.5709 31.2648 89.7445C31.1545 90.3113 31.8682 90.2076 32.1735 89.6126C32.3773 89.2156 33.0615 88.7796 34.3453 88.2286C35.8161 87.5974 36.3538 87.2282 36.8446 86.5136C37.4249 85.6681 36.9131 86.9929 34.6327 92.2397C34.2503 93.1198 33.7225 94.1312 33.4598 94.4871C33.0332 95.0657 33.0457 95.2863 33.5778 96.5629C34.1715 97.9866 34.1705 97.998 33.2884 100.004C31.0715 105.048 30.2045 107.171 29.8716 108.368C29.6741 109.078 29.4334 109.819 29.336 110.015C29.0463 110.598 28.3017 113.178 28.1279 114.201C27.6934 116.759 27.892 119.52 28.6563 121.546C29.9217 124.9 32.7809 127.106 40.2326 130.476C43.1175 131.781 47.58 133.601 50.1495 134.52C52.7189 135.438 54.9024 136.233 55.0016 136.286C56.3119 136.98 60.1914 138.095 60.6688 137.915C62.4941 137.226 66.712 131.131 76.425 115.148C78.0478 112.477 78.5357 111.857 78.9113 111.986C79.2853 112.115 79.6166 111.745 80.5696 110.135C82.1862 107.402 82.9546 106.305 83.1798 106.407C83.3489 106.483 84.7949 108.321 92.8456 118.692L95.0965 121.592L94.5201 122.683C93.8251 123.997 90.9404 129.718 88.14 135.336C80.9118 149.837 80.2539 151.697 81.9203 152.913C82.5349 153.361 82.5583 153.415 82.1385 153.412C81.8801 153.41 81.7029 153.5 81.7448 153.611C81.7867 153.722 81.5744 153.896 81.2727 153.997C80.7357 154.177 80.753 154.252 82.1443 157.834C87.3975 171.354 94.4244 188.181 96.1827 191.452C98.557 195.869 101.167 198.762 103.608 199.681C108.354 201.468 114.7 200.749 134.001 196.239L141.645 194.452L142.356 195.138C142.747 195.515 143.288 195.851 143.558 195.886C144.069 195.951 145.939 195.573 151.101 194.363C156.09 193.193 157.843 192.787 163.959 191.388C167.165 190.655 169.982 189.982 170.22 189.892C170.459 189.803 170.899 189.224 171.199 188.608L171.745 187.486L181.924 185.007C194.209 182.014 196.675 181.335 200.663 179.843C204.264 178.496 206.944 176.932 208.546 175.243C210.309 173.384 211.726 169.896 212.014 166.707C212.146 165.257 212.181 163.837 212.094 163.552C212.006 163.267 211.888 162.532 211.832 161.918C211.49 158.2 211.613 158.744 209.43 151.269C207.834 145.801 206.422 141.611 201.873 128.844C200.35 124.572 199.035 120.73 198.949 120.306C198.831 119.72 198.74 119.622 198.569 119.896C198.446 120.094 198.024 120.783 197.631 121.426C196.964 122.521 194.841 124.359 192.243 126.092C189.668 127.809 182.577 129.97 162.537 135.148C154.135 137.318 150.683 138.284 150.589 138.492C150.42 138.867 154.877 151.809 162.306 172.513C164.264 177.97 165.782 182.511 165.679 182.602C165.576 182.695 165.552 182.931 165.626 183.128C165.787 183.554 165.401 183.755 165.007 183.451C164.811 183.3 164.706 183.355 164.65 183.639C164.592 183.938 164.457 184.003 164.128 183.889C163.884 183.805 162.584 184.087 161.239 184.515C157.397 185.74 154.492 186.517 154.424 186.337C154.39 186.246 153.705 186.403 152.902 186.684C152.099 186.966 151.355 187.09 151.25 186.959C151.141 186.826 150.4 186.97 149.562 187.286C148.306 187.76 148.04 187.78 147.9 187.408C147.752 187.013 147.491 187.067 145.489 187.904C143.885 188.576 143.213 188.759 143.132 188.545C143.06 188.353 142.719 188.402 142.174 188.684C141.709 188.924 141.294 189.03 141.253 188.919C141.105 188.527 140.601 188.941 140.329 189.677C140.101 190.296 139.994 190.374 139.69 190.14C139.466 189.967 139.602 190.417 140.045 191.315C140.441 192.116 140.666 192.732 140.544 192.683C139.889 192.421 136.671 184.495 129.7 165.978L122.064 145.69L121.191 145.87C120.71 145.968 116.887 146.944 112.695 148.037C103.07 150.547 95.1927 152.466 92.0736 153.06C90.7404 153.314 88.6441 153.783 87.415 154.103C84.8938 154.758 83.6314 154.9 82.5264 154.654C81.5031 154.425 81.6454 153.863 82.6959 153.984C83.9221 154.126 86.3937 153.904 88.334 153.478C89.287 153.268 91.2695 152.842 92.7398 152.53C95.1648 152.016 103.101 150.048 109.502 148.373C110.875 148.014 113.655 147.291 115.68 146.767C122.315 145.05 124.071 144.589 125.794 144.114C126.728 143.855 129.083 143.245 131.027 142.757C132.971 142.269 134.869 141.677 135.246 141.442C135.622 141.207 136.204 141.051 136.539 141.095C136.874 141.139 137.171 141.122 137.201 141.057C137.23 140.993 137.065 139.907 136.835 138.644C133.055 117.938 131.935 111.163 132.056 109.724C132.227 107.692 135.552 106.231 137.746 107.223C139.358 107.953 139.854 108.929 140.579 112.8C140.915 114.593 141.89 119.631 142.746 123.995C143.602 128.359 144.536 133.363 144.821 135.115C145.388 138.598 145.535 138.831 146.852 138.334C147.283 138.171 147.842 138.123 148.095 138.226C148.39 138.347 148.456 138.331 148.278 138.182C148.126 138.054 148.108 137.863 148.238 137.758C148.405 137.621 148.318 137.389 147.939 136.96C147.065 135.971 146.127 133.125 146.232 131.779C146.496 128.397 149.591 124.879 153.653 123.347C156.717 122.191 158.972 122.772 161.617 125.398C164.263 128.025 165.562 130.628 165.111 132.396C165.014 132.775 164.961 133.156 164.994 133.242C165.049 133.39 168.484 132.535 172.911 131.271C173.986 130.964 175.224 130.633 175.664 130.534C180.989 129.341 188.808 126.741 191.695 125.203C194.235 123.851 196.089 121.958 196.799 119.995C197.419 118.282 197.986 113.319 198.343 106.488C199.25 89.1667 199.251 88.8808 198.374 87.4368C197.764 86.4297 197.257 86.0989 196.666 86.3217C196.426 86.4122 195.877 86.3558 195.446 86.1964C195.015 86.037 194.408 85.9434 194.097 85.9882C193.187 86.1198 189.067 86.9331 187.733 87.2441L186.507 87.5302L186.349 82.1854C186.183 76.5691 186.027 75.8774 184.305 73.1522C183.858 72.4439 183.907 72.2326 185.109 69.6712L186.39 66.9441L186.455 61.5755C186.547 53.9947 186.47 44.2073 186.307 42.7916C186.211 41.9496 186.013 41.4157 185.643 40.9967C185.073 40.3517 184.121 40.1826 184.142 40.7306C184.158 41.1242 183.48 41.4448 183.352 41.1047C183.304 40.9773 183.373 40.7847 183.506 40.6766C183.91 40.3483 180.953 40.2112 179.878 40.5086C179.483 40.618 178.646 40.5538 178.019 40.366C177.392 40.1779 176.792 40.1369 176.686 40.2745C176.58 40.4121 176.443 40.3918 176.382 40.2297C176.321 40.0676 176.125 40.0647 175.947 40.2235C175.769 40.382 175.59 40.4241 175.549 40.3169C175.509 40.2097 174.8 40.1372 173.973 40.1556C173.146 40.1743 172.305 40.1388 172.103 40.0768C171.902 40.0149 171.562 40.1191 171.35 40.3086C171.085 40.5435 170.985 40.5383 171.033 40.2917C171.08 40.0485 170.982 40.0384 170.733 40.2606C170.482 40.4832 170.385 40.4731 170.432 40.2295C170.477 39.9991 170.389 39.9693 170.189 40.1476C170.017 40.3011 169.753 40.3318 169.603 40.2163C169.452 40.1005 169.252 40.1072 169.156 40.231C169.061 40.3547 168.652 40.3062 168.247 40.123C167.843 39.9399 167.376 39.9104 167.211 40.0575C167.046 40.2047 166.802 40.2415 166.67 40.1395C166.538 40.0374 166.295 40.0069 166.13 40.0714C165.95 40.1422 166.019 40.2297 166.302 40.291C166.561 40.3472 166.66 40.4359 166.521 40.4884C166.174 40.6193 165.264 40.4071 165.571 40.2671C165.706 40.2051 165.167 40.0892 164.372 40.0095C163.577 39.9295 162.771 40.0024 162.581 40.1713C162.352 40.3753 162.26 40.356 162.308 40.1137C162.373 39.7794 162.003 39.7544 161.493 40.059C161.382 40.1252 161.09 40.1097 160.843 40.0245C160.597 39.9393 160.29 40.0056 160.162 40.1713C160.025 40.3503 159.956 40.341 159.994 40.1483C160.05 39.8562 159.249 39.7468 158.488 39.9431C158.326 39.9846 157.992 39.9583 157.744 39.8848C156.968 39.6541 154.769 39.7376 154.563 40.0054C154.45 40.1516 154.396 40.1068 154.436 39.9013C154.474 39.7033 154.395 39.5832 154.259 39.6344C154.123 39.6857 153.778 39.7386 153.493 39.7519C153.06 39.7721 153.054 39.7981 153.455 39.906C153.72 39.9776 153.813 40.0846 153.662 40.1443C153.51 40.2037 153.093 40.1015 152.734 39.917C152.292 39.69 151.93 39.6978 151.615 39.9413C151.36 40.1392 151.203 40.1764 151.267 40.0239C151.417 39.6678 149.623 39.5915 149.353 39.9424C149.225 40.1084 149.179 40.0546 149.229 39.7979C149.288 39.4933 149.183 39.4777 148.817 39.7372C148.547 39.929 148.345 39.9867 148.368 39.8657C148.392 39.7447 145.508 39.5885 141.959 39.5187C136.638 39.4137 135.255 39.4823 134.07 39.9087C133.28 40.1933 132.657 40.3071 132.685 40.1613C132.803 39.5527 131.868 40.9345 131.731 41.5711C131.649 41.9539 131.486 47.5683 131.368 54.0471C131.161 65.4542 131.176 65.8693 131.827 67.1622C132.197 67.8965 132.867 69.0131 133.316 69.6434C133.764 70.2737 134.134 71.0533 134.136 71.3757C134.139 71.9598 131.758 75.476 131.452 75.3377C131.364 75.2977 130.041 73.7966 128.513 72.0017C125.103 67.9975 124.082 66.9411 124.082 67.4199C124.083 67.6699 123.737 67.6372 123.011 67.3185C122.422 67.0598 121.674 66.9483 121.348 67.071C120.69 67.3194 114.906 71.8867 101.391 82.8319C93.2362 89.4355 92.2943 90.273 91.9229 91.2511C91.6539 91.9598 91.5299 92.1132 91.5663 91.6924C91.612 91.1624 91.5524 91.0864 91.2308 91.2646C91.0158 91.3841 90.0123 91.1422 89.0005 90.7275C87.989 90.3127 86.8694 89.8984 86.5125 89.8072C86.1479 89.7136 85.8651 89.456 85.8665 89.2181C85.8681 88.9032 85.7551 88.8845 85.4253 89.145C85.1085 89.3951 84.9382 89.3796 84.8292 89.0908C84.6249 88.5492 85.2774 88.0017 85.7252 88.3392C85.9213 88.4871 86.0494 88.5176 86.0103 88.407C85.9708 88.2962 86.1528 88.2926 86.4143 88.399C86.6758 88.5052 86.8704 88.6966 86.8466 88.8249C86.8228 88.9532 86.9677 88.9959 87.1684 88.9202C87.369 88.8445 87.8371 89.0041 88.2084 89.2751C88.5796 89.5459 88.919 89.6888 88.9626 89.5924C89.0862 89.3193 90.5412 90.0587 90.5901 90.4196C90.7173 91.3535 92.0928 89.6493 94.8671 85.1218C111.224 58.4254 113.337 54.1031 113.924 46.1296C114.161 42.9091 113.972 37.5737 113.61 37.2951C113.424 37.1515 113.469 37.1041 113.74 37.1574C114.039 37.2159 114.065 37.1393 113.832 36.878C113.656 36.6801 113.61 36.4811 113.73 36.4361C113.849 36.391 113.903 36.0129 113.85 35.5961C113.797 35.1793 113.727 34.5883 113.694 34.283C113.644 33.8217 113.611 33.8101 113.494 34.2138C113.377 34.6215 113.339 34.6129 113.256 34.1595C113.201 33.8623 113.312 33.5962 113.502 33.568C113.692 33.54 113.74 33.4333 113.608 33.3316C113.476 33.2295 113.456 33.0312 113.564 32.8904C113.794 32.592 113.67 32.1254 113.389 32.2315C113.283 32.2715 113.164 32.5593 113.125 32.8713C113.086 33.183 112.974 34.0024 112.875 34.6919C112.777 35.3813 112.744 36.028 112.802 36.1292C113.085 36.6216 113.051 36.9809 112.707 37.1106C112.499 37.1892 112.371 37.3674 112.424 37.5065C112.476 37.6456 112.64 37.7139 112.787 37.6584C112.934 37.6029 113.022 37.7243 112.982 37.9282C112.933 38.1807 112.764 38.1522 112.454 37.8385C112.139 37.5207 111.775 37.4622 111.279 37.6495C110.808 37.8272 110.51 37.7899 110.416 37.5416C110.328 37.3079 110.036 37.2517 109.656 37.395C108.894 37.6824 108.54 37.4269 108.17 36.3216C107.906 35.5347 107.821 35.4874 107.132 35.7472C106.72 35.903 106.344 35.9297 106.297 35.8065C106.251 35.6836 105.529 35.7482 104.692 35.9506C103.28 36.2922 101.547 36.2657 101.184 35.897C101.098 35.8101 100.748 35.8448 100.406 35.9739C100.063 36.103 99.3855 36.0286 98.8991 35.8085C98.3077 35.5408 97.8736 35.5197 97.5889 35.7444C97.3547 35.9292 97.1242 35.9771 97.0766 35.851C97.029 35.7248 96.3062 35.7074 95.4706 35.8126C94.6351 35.9178 93.7747 35.903 93.5589 35.7801C93.3428 35.6571 92.2515 35.6869 91.1336 35.8464C90.0159 36.0057 89.0626 36.0337 89.0155 35.9088C88.9682 35.7836 88.5884 35.8099 88.1715 35.9672C87.7545 36.1245 87.3752 36.152 87.3285 36.0284C87.2819 35.9047 87.1037 35.8625 86.9323 35.9346C85.6116 36.4895 84.1699 36.8534 84.2152 36.6199C84.2457 36.4645 84.0637 36.4838 83.8111 36.6629C83.5582 36.842 83.3275 37.112 83.2981 37.2629C83.2689 37.4134 82.9672 37.6416 82.6278 37.7696C81.8399 38.0669 81.8912 38.1677 83.2461 38.9807C84.5126 39.7408 84.6361 39.9007 84.11 40.0992C83.8841 40.1844 83.74 40.0695 83.7412 39.805C83.7432 39.4857 83.5648 39.4383 83.0682 39.6256C82.6967 39.7657 82.1211 39.8445 81.7888 39.8009C81.4568 39.7571 80.9265 39.7925 80.6107 39.8796C79.6962 40.1316 78.1312 39.9429 77.8152 39.5424C77.4511 39.0806 74.1259 39.3532 73.6886 39.8807C73.5228 40.0807 72.8167 41.4353 72.1195 42.8907C71.4225 44.3458 70.1846 46.6327 69.3688 47.9726C68.0913 50.0699 63.2489 58.3194 62.2203 60.1507C62.0304 60.4889 61.4472 61.5117 60.9243 62.4237C60.4013 63.3353 59.7417 64.5138 59.4584 65.0424C57.8295 68.0819 56.1332 70.8742 55.8512 70.9806C55.0822 71.2707 55.3785 70.2571 56.8537 67.5531C59.8682 62.0268 62.2027 56.248 62.1049 54.5537C62.0294 53.2441 59.4535 53.0595 59.0151 54.3324C58.9207 54.6064 58.695 54.8865 58.5135 54.955C58.3321 55.0234 58.0727 55.3246 57.9374 55.6241C57.8021 55.9236 57.5601 56.1428 57.3999 56.1114C57.2394 56.0801 57.1214 56.3023 57.1378 56.6052C57.1543 56.9144 56.8696 57.3497 56.4884 57.5978C55.2306 58.4166 54.5596 61.875 55.3168 63.6366C55.9186 65.0368 55.8972 65.0726 54.858 64.4062C53.859 63.7654 53.8525 63.7511 53.3413 61.0997L53.1863 60.2962L52.9997 61.0275C52.5389 62.8323 52.8085 64.9751 53.847 67.7639C54.4046 69.261 54.7937 70.5115 54.7118 70.543C54.3622 70.6769 52.9241 68.0135 52.3718 66.2087C51.7657 64.2287 51.4304 61.0947 51.6457 59.4235C51.7102 58.9225 51.7498 58.4526 51.7331 58.3794C51.7165 58.3063 51.8343 57.0919 51.9946 55.681C52.1551 54.2699 52.3161 52.8128 52.3526 52.4428C52.3894 52.0728 52.5071 51.7358 52.6144 51.6941C52.7216 51.6525 52.8286 51.3187 52.8521 50.9522C52.8755 50.5857 52.9617 49.9359 53.0436 49.5078C53.1898 48.7438 53.1977 48.75 53.4764 49.8501C53.6326 50.4662 53.7944 50.9578 53.8358 50.9422C53.8773 50.9265 54.1552 49.9094 54.4537 48.6818C54.9302 46.7197 55.1053 46.387 55.9008 45.9324C56.4894 45.5956 56.7549 45.2803 56.6605 45.0299C56.4908 44.58 58.2174 40.8909 59.2579 39.4801C59.6518 38.9459 59.9316 38.3966 59.8797 38.259C59.8279 38.1217 59.8715 37.977 59.9769 37.9373C60.082 37.8976 60.9985 36.109 62.0136 33.9622C63.9534 29.8601 67.4479 23.6905 68.9745 21.6729C69.4706 21.0175 69.9166 20.1412 69.9661 19.7253C70.0924 18.6606 71.0716 16.7596 71.9392 15.8953C72.4371 15.3992 73.4843 14.8496 75.1923 14.188C77.3945 13.3347 77.9463 13.2216 79.5851 13.2868C81.2526 13.3528 84.3475 13.8462 84.8389 14.1242C84.9398 14.1815 85.6669 14.387 86.4547 14.5815C88.7251 15.1413 96.8832 18.2493 99.1618 19.4219C99.6208 19.6584 101.243 20.4112 102.767 21.0949C112.774 25.5844 113.318 25.9056 112.949 27.1027C112.772 27.6771 112.764 27.6789 112.752 27.1526C112.743 26.7557 112.672 26.6916 112.496 26.9208C112.362 27.0947 112.4 27.4464 112.581 27.7022C112.763 27.9579 112.867 28.5458 112.813 29.0083C112.759 29.471 112.854 30.0062 113.025 30.198C113.206 30.4027 113.205 30.7451 113.021 31.0275C112.756 31.4323 112.779 31.5333 113.167 31.6669C113.545 31.7977 113.6 31.3137 113.475 28.9358C113.288 25.3821 113.418 24.0707 113.956 24.0738C114.178 24.075 114.471 23.8782 114.609 23.6365C114.816 23.2713 113.867 22.7608 108.999 20.6203C94.3074 14.16 89.2275 12.3577 83.6019 11.6106C79.6882 11.0906 77.3292 11.3248 74.1411 12.5494C72.6851 13.1091 71.1433 13.8429 70.715 14.1807C69.4515 15.1771 67.676 16.0728 67.5623 15.7713C67.507 15.6247 67.5437 14.3935 67.6439 13.0355C67.744 11.6777 67.8441 10.1372 67.8665 9.61252C67.8885 9.08798 67.9926 8.6261 68.0977 8.58644C68.2029 8.54678 68.2287 8.35506 68.1551 8.16008C68.0817 7.96536 68.0751 7.09023 68.1404 6.21574C68.2737 4.43714 68.0961 3.67625 67.5927 3.86615C67.4067 3.93632 67.0553 6.11638 66.8117 8.7105C66.5678 11.3047 66.2967 12.9995 66.2088 12.4766C65.9934 11.1955 65.0428 8.88527 64.628 8.63504C64.4438 8.52398 63.8729 7.90912 63.3595 7.2691C61.1217 4.47817 54.2739 1.25022 49.9989 0.971096C45.368 0.668834 42.5687 1.32534 39.1255 3.52206ZM42.6006 3.51132C43.0001 3.75061 43.5351 4.05691 43.7896 4.19226C46.0086 5.37266 46.5962 5.73217 47.5077 6.46468C48.5282 7.28515 48.5468 7.32232 48.3599 8.16526C48.255 8.63931 48.078 9.22982 47.9665 9.47756C47.855 9.7253 47.8121 10.4183 47.8709 11.0172C47.9297 11.6161 47.865 12.356 47.727 12.6614C47.5892 12.9664 47.578 13.5941 47.702 14.056C47.826 14.5176 47.9331 14.9585 47.9399 15.0354C47.9665 15.337 42.0125 7.77565 40.9739 6.18869C40.3671 5.26125 39.7714 4.53993 39.6501 4.58569C39.5288 4.63145 38.9133 5.20391 38.2824 5.85763C36.7509 7.44467 35.8615 9.42965 35.6801 11.6655C35.5549 13.2099 35.6507 13.8235 36.2759 15.4806C36.748 16.733 37.0915 17.3634 37.2143 17.2038C37.3209 17.0654 37.3475 16.7916 37.2735 16.5954C37.0289 15.947 37.3532 13.0012 37.7298 12.4493C37.9329 12.1511 37.9958 11.8604 37.8695 11.8032C37.7431 11.746 37.8649 11.6143 38.1403 11.5104C38.6966 11.3006 40.2285 12.5645 40.1161 13.1404C40.0777 13.3372 40.1398 13.3626 40.2641 13.2013C40.8261 12.4713 44.1994 20.1385 43.7519 21.1292C43.5258 21.6296 42.2897 22.2363 42.163 21.9088C42.0746 21.6807 40.1359 21.3479 40.0072 21.5386C39.9572 21.6126 39.7068 21.3622 39.4506 20.9822C39.0147 20.3355 39.0119 20.3458 39.4058 21.1435C40.304 22.962 44.0867 27.4406 44.9002 27.6488C45.2561 27.7399 45.629 28.0036 45.7288 28.2352C45.846 28.507 45.9129 28.5236 45.9179 28.282C45.9223 28.0764 45.7245 27.7937 45.4784 27.6534C45.1166 27.4473 45.1094 27.3691 45.4412 27.244C45.6666 27.1589 45.8911 27.1956 45.9401 27.3253C46.0911 27.7256 47.1165 27.5283 47.5678 27.012C47.8033 26.7425 48.0627 26.5523 48.1439 26.5892C48.4408 26.7236 48.3148 30.7255 47.8359 36.3783C47.8048 36.7473 47.8789 37.0943 48.0004 37.1493C48.1222 37.2045 48.1052 37.6185 47.963 38.0696C47.8208 38.5205 47.7846 39.1018 47.8825 39.3612C47.9852 39.6336 47.8817 39.9002 47.6373 39.9924C47.2828 40.1262 47.3443 40.2159 48.016 40.5455C48.7402 40.9011 48.7777 40.9638 48.4037 41.1936C48.0091 41.4363 48.0183 41.4615 48.5986 41.7241C50.0904 42.3995 50.8251 41.5226 53.7483 35.5786C54.7678 33.5053 55.7893 31.4633 56.0179 31.0408C56.2467 30.6182 56.9592 29.2546 57.6013 28.0106C59.9338 23.4918 61.6662 20.5665 61.9744 20.6268C62.1477 20.6608 62.1674 20.5944 62.0184 20.4793C61.8686 20.3639 62.1223 19.6339 62.5854 18.8488C63.0464 18.0668 63.4586 17.2998 63.5012 17.1442C63.5438 16.9886 63.7251 16.8898 63.9037 16.9247C64.0826 16.9598 64.2607 16.8242 64.2998 16.6234C64.3443 16.3954 64.2872 16.3673 64.1475 16.5488C63.7751 17.0322 63.7281 16.4271 64.0839 15.7336C64.4841 14.9541 64.4235 14.7129 63.8268 14.7092C63.5694 14.7078 63.4841 14.7885 63.6265 14.8983C63.7633 15.0038 63.7547 15.1356 63.6077 15.1911C63.4606 15.2466 63.3977 15.4451 63.4683 15.6322C63.5389 15.8193 63.4244 16.2849 63.2141 16.6669C62.892 17.2518 62.8599 17.27 63.01 16.7818C63.3422 15.7011 62.828 16.0306 62.2126 17.2929C61.8761 17.9831 61.5168 18.5797 61.4145 18.6183C61.3119 18.657 61.1434 18.9375 61.0401 19.2414C60.9372 19.5454 60.2404 20.7448 59.4924 21.9063C58.7442 23.0681 57.9194 24.4622 57.6593 25.0047C57.003 26.374 56.5003 26.5168 56.3349 25.3812C56.1755 24.2885 57.0305 22.0262 59.1556 17.9166C59.6537 16.9537 60.413 15.4523 60.8428 14.58C61.468 13.3109 61.7174 13.0262 62.091 13.155C62.4359 13.2742 62.6664 13.1919 62.9739 12.8402C63.4414 12.3056 63.5761 12.4758 63.5736 13.5964C63.5712 14.6375 63.7766 14.443 63.9132 13.2753C64.0841 11.8121 62.9741 9.23496 61.4753 7.6148C59.9078 5.91998 58.1544 4.79823 55.0607 3.51048C50.8581 1.76088 47.4095 1.45396 43.8108 2.50909L41.8743 3.07671L42.6006 3.51132ZM56.4106 15.187C55.8204 16.7509 55.3001 19.0799 55.639 18.6398C55.7403 18.5083 56.089 17.4913 56.4138 16.3803C56.7386 15.2692 57.0628 14.1757 57.1344 13.95C57.2063 13.7244 57.2037 13.5628 57.1289 13.591C57.0543 13.6191 56.7309 14.3373 56.4106 15.187ZM54.4566 15.4657C54.4127 15.8 54.4338 16.052 54.5033 16.0258C54.5728 15.9996 54.6654 15.7047 54.7093 15.3704C54.7532 15.036 54.732 14.784 54.6625 14.8103C54.593 14.8365 54.5005 15.1314 54.4566 15.4657ZM50.7646 32.9631C50.3589 35.2104 50.148 36.6867 49.904 38.9929C49.7184 40.7447 49.7541 41.088 50.1149 41.0328C50.4879 40.9756 51.1789 39.666 54.2309 33.2329C54.4429 32.7864 54.4195 32.7825 54.0398 33.2002C53.8022 33.4617 53.4871 33.6282 53.3395 33.5704C53.192 33.5125 53.1882 33.5621 53.3312 33.681C53.4741 33.7995 53.1489 34.8047 52.6085 35.9142C52.068 37.0237 51.6401 37.8238 51.6574 37.6922C51.6748 37.5605 51.8422 36.5964 52.0298 35.5495C52.4065 33.4457 52.0541 31.1044 51.3981 31.3519C51.1959 31.4282 50.9108 32.1531 50.7646 32.9631ZM21.952 47.1784C21.6814 47.4706 21.3484 48.1817 21.2119 48.7589C20.3322 52.4836 24.3542 57.487 31.009 60.9467C34.8676 62.9526 40.4233 64.6892 41.5261 64.2342C42.0078 64.0357 43.3063 60.844 46.0756 53.0542C47.3069 49.5901 48.4672 44.7375 48.2205 44.0835C48.123 43.8251 47.3141 43.2304 46.4228 42.7616C45.5315 42.2927 44.7607 41.7992 44.7101 41.6649C44.4755 41.0431 44.1862 41.6895 44.3319 42.5104C44.5467 43.7227 44.2955 44.1005 42.6106 45.0995C41.2359 45.9145 41.1242 45.9335 38.3085 45.8327C28.3478 45.4757 26.6774 45.5289 23.7753 46.2956C22.9886 46.5034 22.2431 46.8643 21.952 47.1784ZM50.6585 50.7687C49.6802 57.4744 49.4322 60.7695 49.4786 66.4517C49.5333 73.1242 49.3869 74.1648 47.7364 78.8392C47.4846 79.5523 45.6827 83.1994 44.7923 84.7976C43.8267 86.5317 42.7999 87.5058 41.2358 88.1724C40.4355 88.5133 39.6688 88.9374 39.5325 89.1148C39.3869 89.3041 39.1325 89.3301 38.9165 89.1776C38.6827 89.013 38.8735 89.5977 39.4393 90.7806L40.33 92.6429L37.2343 98.0999C32.2089 106.959 29.8242 112.771 30.7758 113.841C31.0049 114.099 31.192 113.997 31.8796 113.241C32.335 112.741 32.8802 112.026 33.0908 111.654C34.9009 108.457 37.7178 103.428 38.1297 102.657C38.6857 101.617 39.5989 99.9741 40.279 98.7894C41.1659 97.2448 42.0914 95.1763 42.0018 94.9388C41.818 94.4515 42.5001 94.8265 43.84 95.9494C45.1701 97.0639 48.0857 99.0075 49.1932 99.5176C49.4954 99.6567 50.5445 100.2 51.5248 100.726C53.0172 101.525 53.3502 101.607 53.5732 101.226C53.7843 100.865 53.8247 100.851 53.7687 101.159C53.7299 101.372 53.796 101.51 53.9152 101.465C54.0345 101.42 54.222 101.187 54.3312 100.947C54.4909 100.597 54.53 100.605 54.529 100.987C54.5283 101.25 54.6775 101.493 54.8607 101.529C55.0437 101.565 55.132 101.431 55.0565 101.231C54.8893 100.788 55.2725 100.068 55.8506 99.7394C56.092 99.6025 56.1815 99.3332 56.0561 99.1226C55.9016 98.8628 56.0785 98.5996 56.6355 98.261C57.2292 97.9001 57.3682 97.6749 57.1711 97.3942C57.0248 97.1854 56.8291 96.5235 56.7364 95.9229C56.5812 94.9176 56.6356 94.8017 57.4241 94.4606C57.8952 94.2569 58.3863 94.026 58.5154 93.9475C58.6446 93.8691 59.0982 93.6942 59.5234 93.5586L60.2967 93.3128L59.6332 91.8134L58.9697 90.314L60.5818 89.7059C62.0834 89.1394 62.1791 89.0588 61.9835 88.5272C61.8682 88.2131 61.6344 87.5216 61.4644 86.9898L61.1552 86.0231L62.6715 85.4511C63.8509 85.0062 64.156 84.7949 64.0446 84.4998C63.9659 84.2912 64.0153 84.0776 64.1543 84.0251C64.2933 83.9727 64.2914 83.6158 64.1502 83.2323L63.8934 82.5348L64.5552 82.9446C65.0351 83.2417 65.4297 83.2548 65.9906 82.993C66.4159 82.7944 66.678 82.5655 66.573 82.4844C66.4679 82.4033 66.0705 82.5315 65.69 82.7693C65.176 83.0903 64.9624 83.1064 64.8588 82.8318C64.762 82.5751 65.0276 82.3319 65.7293 82.0355C66.3445 81.7754 66.7155 81.7298 66.6786 81.9188C66.6453 82.0894 66.728 82.1876 66.8625 82.1369C66.9969 82.0862 67.8267 82.3581 68.7064 82.7412C69.586 83.1243 70.415 83.3966 70.5486 83.3461C70.6823 83.2957 70.8561 83.4251 70.9348 83.6338C71.0135 83.8424 71.2063 83.9646 71.3635 83.9054C71.6321 83.804 72.7079 84.22 76.7698 85.995C77.7958 86.4436 78.5669 86.6213 78.7134 86.4433C78.8468 86.2812 78.9162 86.2524 78.8675 86.3797C78.8188 86.5069 79.9868 87.1383 81.463 87.7823C83.8393 88.819 84.1948 88.8983 84.564 88.4759L84.9813 87.9987L84.2061 87.6479C83.7796 87.4549 83.3489 87.3637 83.2488 87.4451C83.1485 87.5266 83.0926 87.4595 83.1245 87.2961C83.1564 87.1328 82.5343 86.8252 81.7425 86.6126C80.9506 86.3997 80.3199 86.1365 80.3412 86.0277C80.3624 85.9186 79.9237 85.7131 79.3661 85.5711C77.9841 85.2188 65.5741 79.5253 62.7185 77.9334C58.0073 75.3071 54.6658 72.436 52.8944 69.4925C50.9912 66.33 50.6095 62.92 51.2357 54.6734C51.4592 51.7327 51.5873 49.1819 51.5206 49.0052C51.2505 48.2892 50.9224 48.9607 50.6585 50.7687ZM112.994 29.3586C112.99 30.0863 113.124 30.2234 113.228 29.5984C113.28 29.2888 113.249 29.0024 113.159 28.962C113.07 28.9212 112.995 29.0999 112.994 29.3586ZM4.38517 74.7855C4.22957 74.9921 4.21877 75.2137 4.36149 75.2783C4.50396 75.343 4.7403 75.1308 4.8866 74.8069C5.17087 74.1777 4.85361 74.1639 4.38517 74.7855ZM105.009 36.9817C105.104 37.2346 105.405 37.2657 105.91 37.075C106.415 36.8843 106.62 36.6626 106.525 36.4097C106.43 36.1568 106.129 36.1257 105.624 36.3163C105.118 36.507 104.913 36.7288 105.009 36.9817ZM156.651 40.5296C156.735 40.8162 156.847 40.9237 156.899 40.7688C156.951 40.6137 157.062 40.3805 157.145 40.2502C157.228 40.1198 157.117 40.0122 156.897 40.011C156.646 40.0094 156.555 40.2019 156.651 40.5296ZM137.186 48.4583C137.187 49.1172 138.881 55.3952 139.137 55.6885C139.474 56.0746 140.736 56.0592 141.058 55.6651C141.2 55.4917 141.741 53.8567 142.262 52.0321C142.782 50.2075 143.252 48.6975 143.307 48.6768C143.362 48.6561 143.357 49.695 143.296 50.9855C143.14 54.2997 143.321 54.9908 144.523 55.6642C145.869 56.4189 147.319 56.2623 148.228 55.2637C148.78 54.6579 148.935 54.0865 148.992 52.4542C149.073 50.123 148.883 48.3065 148.571 48.4242C148.455 48.4681 148.035 48.2433 147.639 47.9249C147.242 47.6065 146.861 47.4191 146.793 47.5085C146.724 47.5978 146.079 47.7112 145.36 47.7603C144.618 47.8111 144.029 47.9711 143.998 48.1307C143.922 48.5238 143.121 48.4776 142.967 48.0712C142.813 47.6625 141.852 47.6826 141.32 48.1058C141.107 48.2759 140.77 49.1839 140.573 50.1233C140.375 51.0627 140.177 51.8145 140.131 51.794C140.086 51.7737 139.888 50.9493 139.692 49.9624C139.411 48.5564 139.233 48.1109 138.868 47.903C138.308 47.5836 137.185 47.9539 137.186 48.4583ZM149.387 48.5046C149.256 48.7026 149.347 48.6962 149.62 48.4884C150.003 48.1965 150.031 48.2136 149.809 48.6066C149.666 48.8592 149.601 49.3067 149.664 49.6006C149.727 49.8945 149.769 50.9525 149.757 51.9518C149.745 52.951 149.879 54.149 150.054 54.6138C150.468 55.7116 151.726 56.3415 153.212 56.1962C154.816 56.0391 155.526 55.1981 155.559 53.4136C155.622 50.0825 155.808 48.7387 156.154 49.1281C156.358 49.3567 156.37 49.4854 156.186 49.4493C156.016 49.4162 155.959 49.5936 156.058 49.8437C156.157 50.0937 156.281 51.3219 156.334 52.5731C156.445 55.224 156.855 55.9089 158.521 56.2243C160.05 56.5138 161.496 55.8724 162.005 54.6787C162.231 54.1478 162.359 53.5615 162.289 53.3758C161.942 52.4566 159.64 52.7453 159.74 53.6951C159.791 54.1702 159.049 54.7345 158.898 54.336C158.814 54.1109 158.804 50.2386 158.888 50.0518C159.059 49.6702 159.882 50.3132 159.985 50.9102C160.238 52.366 162.056 52.3279 162.383 50.86C162.481 50.4209 162.619 50.0882 162.691 50.1209C162.823 50.1805 162.928 52.2003 162.856 53.2903C162.707 55.5266 163.307 56.731 164.369 56.3303C165.065 56.0679 165.256 55.6319 165.198 54.4469C165.153 53.5246 165.363 53.2413 165.995 53.3723C166.343 53.4442 166.398 53.621 166.308 54.391C166.161 55.6435 166.458 56.3247 167.191 56.4213C168.232 56.5583 168.5 55.8202 168.525 52.7523C168.538 51.1384 168.612 49.7352 168.689 49.6343C169.074 49.1351 169.357 50.2795 169.387 52.4488C169.433 55.8749 169.534 56.2649 170.42 56.4501C170.825 56.5348 171.83 56.5869 172.654 56.566C174.079 56.53 174.164 56.499 174.426 55.9195C174.775 55.1468 174.221 54.6612 172.897 54.5779C172.338 54.5426 171.887 54.3313 171.783 54.0557C171.634 53.6609 171.759 53.5616 172.626 53.3841C173.366 53.2324 173.692 53.0366 173.819 52.6668C174.039 52.0293 173.333 51.3388 172.507 51.3826C172.196 51.3993 171.874 51.2356 171.792 51.0191C171.674 50.7045 171.824 50.6006 172.536 50.5039C173.596 50.3604 174.074 50.2015 174.524 49.844C174.708 49.6986 174.79 49.6598 174.707 49.7581C174.624 49.8564 174.66 50.0172 174.787 50.1154C175.082 50.3429 175.119 52.275 174.83 52.3839C174.711 52.4289 174.716 52.545 174.842 52.6423C174.968 52.7392 175.07 53.0368 175.069 53.3033C175.066 53.6933 174.995 53.7391 174.704 53.5389C174.456 53.3676 174.458 53.4463 174.711 53.79C174.913 54.0652 175.041 54.5816 174.994 54.9379C174.822 56.2519 176.127 57.1143 177.048 56.2947C177.237 56.1262 177.367 55.5215 177.338 54.9512C177.27 53.6425 177.363 53.4125 177.915 53.5205C178.296 53.595 178.356 53.7815 178.343 54.8275C178.324 56.2577 178.803 56.8442 179.89 56.7191C181.047 56.5858 181.122 55.9787 180.278 53.6089C180.059 52.995 180.139 52.5979 180.622 51.9059C180.968 51.4097 181.15 50.8894 181.025 50.7497C180.901 50.61 180.951 50.3607 181.136 50.1958C181.614 49.7705 181.118 48.6497 180.41 48.5565C180.087 48.5141 179.691 48.2368 179.528 47.9403C179.337 47.5926 179.018 47.449 178.629 47.5361C178.298 47.61 178.049 47.5533 178.077 47.4101C178.105 47.2668 177.905 47.3074 177.633 47.5C177.241 47.778 177.14 47.7511 177.142 47.3698C177.144 47.0562 177.015 46.9377 176.773 47.029C176.569 47.106 176.359 47.0552 176.307 46.9161C176.254 46.777 175.87 46.7919 175.453 46.9492C174.84 47.1805 174.733 47.3454 174.894 47.8102L175.092 48.3853L174.632 47.8825C174.378 47.6058 174.196 47.2522 174.226 47.0967C174.257 46.9408 174.047 46.9019 173.761 47.0098C173.475 47.1178 173.292 47.3422 173.355 47.5086C173.418 47.675 172.957 47.5889 172.331 47.3172C171.523 46.9669 170.953 46.9137 170.368 47.1343C169.793 47.3514 169.635 47.5152 169.845 47.6773C170.011 47.805 169.688 47.7883 169.128 47.6404C168.569 47.4924 168.01 47.5032 167.886 47.6638C167.751 47.8384 167.687 47.8204 167.727 47.6186C167.763 47.4328 167.536 47.2945 167.222 47.3114C166.909 47.328 166.61 47.2288 166.558 47.091C166.506 46.9529 166.602 46.8673 166.771 46.9004C166.948 46.9349 166.952 46.8175 166.781 46.6249C166.396 46.1921 165.833 46.4046 165.83 46.9838C165.828 47.2309 165.903 47.3341 165.997 47.2131C166.09 47.0919 166.321 47.2466 166.511 47.5564C166.798 48.0252 166.761 48.1368 166.29 48.2208C165.978 48.2765 165.368 48.1136 164.935 47.8591C164.432 47.5635 164.123 47.5213 164.08 47.742C164.043 47.9319 163.877 48.1368 163.71 48.1972C163.504 48.2718 163.49 48.1982 163.664 47.9655C163.856 47.711 163.756 47.6408 163.271 47.6888C162.369 47.7787 162.172 47.8718 162.444 48.0814C162.573 48.1807 162.59 48.3769 162.482 48.5177C162.373 48.6583 162.219 48.5986 162.138 48.385C162.058 48.1713 161.635 47.9169 161.198 47.8195C160.534 47.6712 160.433 47.5594 160.578 47.1327C160.732 46.6832 160.697 46.686 160.282 47.1583C159.832 47.6712 159.817 47.6642 159.9 46.9889C159.986 46.2867 159.985 46.2865 159.626 46.9706C159.308 47.5769 159.247 47.6081 159.108 47.2384C159.007 46.9718 158.744 46.8992 158.383 47.0381C157.914 47.2186 157.899 47.2778 158.295 47.379C158.657 47.4714 158.534 47.566 157.791 47.7667C157.251 47.9127 156.843 48.1232 156.885 48.2344C156.927 48.3455 156.784 48.5034 156.568 48.5851C156.351 48.6668 156.195 48.6271 156.22 48.4965C156.245 48.3659 156.023 48.0999 155.725 47.9057C155.428 47.7111 155.222 47.6525 155.269 47.7752C155.315 47.8978 155.129 47.852 154.855 47.6727C154.282 47.2982 152.81 47.8885 153.112 48.372C153.213 48.5329 153.136 48.7241 152.943 48.7971C152.749 48.8701 152.59 49.1438 152.588 49.4049C152.586 49.8026 152.629 49.8042 152.85 49.4147C153.103 48.9693 153.134 49.4515 153.104 53.4304C153.098 54.2071 152.884 54.4901 152.45 54.2938C152.23 54.194 152.155 51.0821 152.333 49.4656C152.474 48.1902 152.353 47.6586 151.886 47.4974C151.418 47.3359 149.704 48.0269 149.387 48.5046ZM145.617 50.111C145.517 50.6229 145.644 53.6369 145.781 53.9995C145.851 54.1862 146.028 54.2944 146.173 54.2398C146.524 54.1071 146.745 50.269 146.422 49.9054C146.123 49.5691 145.701 49.6767 145.617 50.111ZM151.244 47.8184C151.264 47.873 151.483 47.919 151.73 47.9205C151.988 47.9219 152.073 47.8412 151.93 47.7314C151.691 47.5469 151.166 47.6136 151.244 47.8184ZM64.7444 81.7634C64.7938 81.8944 64.9729 82.0285 65.1424 82.0616C65.3188 82.0961 65.323 81.9787 65.152 81.7861C64.8187 81.4115 64.6072 81.3997 64.7444 81.7634ZM64.9768 84.2926C64.9434 84.4641 65.0935 84.5375 65.31 84.4558C65.5266 84.3741 65.6611 84.1933 65.6086 84.0542C65.5562 83.9152 65.4063 83.8417 65.2754 83.8911C65.1445 83.9404 65.0103 84.1211 64.9768 84.2926ZM184.391 40.798C184.411 40.8503 184.685 40.9746 185 41.0737C185.52 41.2368 185.525 41.2246 185.06 40.9421C184.57 40.6453 184.312 40.5898 184.391 40.798ZM165.324 49.8134C165.195 50.793 165.453 51.2425 165.666 50.4094C165.767 50.014 165.751 49.5692 165.63 49.4206C165.498 49.2576 165.376 49.4135 165.324 49.8134ZM177.346 50.7365C177.341 51.577 177.609 51.9134 178.127 51.7179C178.763 51.4779 178.799 50.7361 178.191 50.39C177.608 50.0575 177.349 50.1636 177.346 50.7365ZM82.3357 87.8375C82.3851 87.9685 82.5423 88.0984 82.6851 88.1263C82.8281 88.1541 82.8825 88.0114 82.8061 87.8088C82.7297 87.6063 82.5724 87.4764 82.4564 87.5202C82.3407 87.5638 82.2863 87.7065 82.3357 87.8375ZM52.3716 101.001C52.3913 101.053 52.6656 101.177 52.9808 101.276C53.5002 101.44 53.5057 101.427 53.0402 101.145C52.551 100.848 52.2931 100.793 52.3716 101.001ZM139.276 70.3993C139.143 71.4125 139.442 71.7244 140.569 71.7476C141.852 71.7741 141.92 71.7139 141.892 70.5874C141.872 69.796 141.801 69.7202 140.994 69.6255C139.824 69.4882 139.369 69.693 139.276 70.3993ZM54.5556 102.199C54.5754 102.251 54.8497 102.375 55.1648 102.475C55.6842 102.638 55.6897 102.626 55.2243 102.343C54.7351 102.046 54.4771 101.991 54.5556 102.199ZM88.759 90.3252C88.8084 90.4562 88.9875 90.5903 89.157 90.6234C89.3334 90.6579 89.3376 90.5405 89.1665 90.348C88.8333 89.9734 88.6218 89.9615 88.759 90.3252ZM121.465 78.2706C120.8 78.8025 120.219 79.4344 120.174 79.6745C120.121 79.9546 120.908 81.0959 122.372 82.8615C124.61 85.5603 124.667 85.6066 125.411 85.326C126.248 85.0103 126.204 84.6704 125.095 82.9177C124.602 82.1384 124.597 82.0224 125.048 81.8522C125.403 81.7182 125.79 81.9194 126.347 82.5273C126.782 83.0039 127.334 83.3946 127.572 83.396C128.23 83.4001 129.166 82.6522 129.012 82.2453C128.844 81.7987 127.217 80.4266 126.606 80.2169C126.265 80.0997 126.155 79.8727 126.157 79.2893C126.159 78.2563 125.052 77.0676 124.153 77.1393C122.832 77.2447 122.651 77.3205 121.465 78.2706ZM142.57 70.6895C142.59 71.4823 142.677 71.6397 143.168 71.7764C143.968 71.9987 145.003 71.8473 145.161 71.4849C145.234 71.3181 145.254 70.8459 145.205 70.436C145.125 69.77 144.999 69.6863 144.028 69.6521C142.574 69.6008 142.543 69.6226 142.57 70.6895ZM56.6443 103.144C56.6641 103.197 56.9384 103.321 57.2535 103.42C57.7729 103.583 57.7784 103.571 57.313 103.288C56.8237 102.992 56.5658 102.936 56.6443 103.144ZM145.947 70.4826C145.813 71.5037 146.145 71.8871 147.193 71.924C148.503 71.9701 148.447 72.0089 148.568 70.9718C148.703 69.8114 148.718 69.8322 147.681 69.7106C146.495 69.5714 146.04 69.7739 145.947 70.4826ZM116.954 81.9853C116.36 82.4851 115.832 83.0992 115.78 83.3496C115.679 83.8454 119.189 88.426 120.154 89.0567C120.677 89.3989 120.721 89.3802 122.277 88.141C123.763 86.957 123.844 86.8348 123.532 86.2294C123.214 85.6124 123.141 85.6082 121.927 86.1405C120.929 86.578 120.586 86.6207 120.335 86.3386C120.159 86.141 120.039 85.9497 120.069 85.9139C120.099 85.8781 120.386 85.5964 120.706 85.2881C121.775 84.2586 120.511 83.0092 119.397 83.9944C118.854 84.4743 118.574 84.4184 118.334 83.7822C118.226 83.4972 118.409 83.1805 118.846 82.8963C119.707 82.3358 119.943 81.6605 119.483 81.0768C119.046 80.5231 118.428 80.7452 116.954 81.9853ZM122.681 79.4589C122.53 79.7928 122.802 80.4458 123.225 80.7641C123.773 81.1766 124.53 80.1544 124.167 79.4929C123.883 78.9766 122.909 78.9543 122.681 79.4589ZM149.24 70.7467C149.272 71.9882 149.303 72.0301 150.197 72.0182C150.631 72.0123 151.193 72.0134 151.445 72.0199C151.759 72.0284 151.92 71.7901 151.955 71.2662C152.036 70.0518 151.803 69.7744 150.671 69.7343C149.251 69.6841 149.214 69.7103 149.24 70.7467ZM113.153 85.3074C113.012 85.718 113.137 86.0057 113.818 86.8327C114.601 87.7831 114.631 87.871 114.265 88.1303C113.545 88.6411 113.407 88.6044 112.571 87.6768C112.114 87.1695 111.563 86.7619 111.346 86.7707C111.03 86.784 111.062 86.8511 111.505 87.106C112.023 87.4043 112.014 87.4193 111.375 87.3363C111 87.2873 110.691 87.2848 110.69 87.3305C110.681 87.8218 111.103 88.8461 111.286 88.7769C111.417 88.7276 111.675 89.0525 111.86 89.4992C112.362 90.7102 114.894 93.6108 115.375 93.5249C115.601 93.4844 115.926 93.2319 116.098 92.964C116.386 92.5152 116.344 92.389 115.562 91.3711C114.886 90.4915 114.762 90.1998 114.954 89.9436C115.418 89.3265 115.731 89.4205 116.736 90.4765C117.481 91.2606 117.882 91.4882 118.265 91.344C119.316 90.9473 119.028 90.2222 116.666 87.3252C114.843 85.089 114.311 84.5862 113.871 84.6827C113.572 84.7481 113.249 85.0291 113.153 85.3074ZM152.546 70.6844C152.668 71.9147 152.888 72.1183 154.043 72.0701C154.669 72.0439 155.191 71.9651 155.204 71.895C155.526 70.0776 155.464 69.9245 154.352 69.7939C153.082 69.6449 152.472 69.9457 152.546 70.6844ZM156.015 70.2307C155.933 70.4683 155.904 70.9874 155.95 71.3842C156.025 72.0336 156.155 72.108 157.261 72.1302C158.568 72.1565 158.652 72.0798 158.704 70.8067C158.732 70.1312 158.664 69.9895 158.308 69.9872C158.071 69.9859 157.896 69.8893 157.918 69.7727C157.941 69.6557 157.766 69.6241 157.53 69.7024C157.293 69.7806 156.889 69.8344 156.631 69.8217C156.371 69.8089 156.098 69.9906 156.015 70.2307ZM159.334 70.8398C159.333 71.2588 159.31 71.7177 159.282 71.8592C159.231 72.1221 161.118 72.2891 161.693 72.0724C161.867 72.0066 162.023 71.5425 162.039 71.0413C162.066 70.2092 162.005 70.1115 161.35 69.9187C160.173 69.5731 159.336 69.9554 159.334 70.8398ZM109.489 89.6553C109.983 89.7861 110.982 90.9138 110.699 91.0207C110.579 91.0657 110.329 90.8871 110.142 90.6236C109.955 90.3591 109.71 90.2654 109.596 90.4141C109.449 90.6046 109.528 90.805 109.864 91.0991C110.208 91.4006 110.245 91.4967 109.996 91.448C109.808 91.4111 109.699 91.5016 109.754 91.6487C109.904 92.0447 110.778 91.6339 110.97 91.0778C111.17 90.4972 110.199 89.445 109.526 89.5126C109.235 89.5417 109.224 89.5852 109.489 89.6553ZM162.556 71.0487L162.478 72.1182L163.785 72.1914C165.071 72.2635 165.577 72.0386 165.368 71.486C165.31 71.3313 165.372 70.9257 165.506 70.5845C165.674 70.1555 165.651 70.0013 165.431 70.0845C165.255 70.1507 165.113 70.0331 165.114 69.8233C165.115 69.5703 164.887 69.5181 164.437 69.6685C164.063 69.7932 163.505 69.9143 163.196 69.9372C162.753 69.9703 162.618 70.2049 162.556 71.0487ZM166.087 69.8787C166.205 69.9701 166.187 70.0882 166.046 70.1414C165.791 70.2376 165.997 72.0984 166.277 72.2251C166.357 72.2614 166.907 72.3084 167.498 72.3292C168.571 72.367 168.572 72.3662 168.676 71.4751C168.806 70.3637 168.593 69.7583 168.133 69.9319C167.939 70.0049 167.662 69.9316 167.517 69.7688C167.373 69.6062 166.943 69.5269 166.563 69.593C166.183 69.6587 165.968 69.7876 166.087 69.8787ZM143.101 80.3719C141.897 81.83 141.544 82.9787 141.514 85.5442C141.443 91.4654 144.648 94.6582 150.492 94.4876C152.499 94.4292 155.003 93.5533 156.085 92.5316C157.755 90.9547 158.523 88.5361 158.404 85.227C158.315 82.7515 157.681 81.2281 156.186 79.893C154.711 78.5754 153.019 78.0303 150.094 77.9308C148.261 77.8686 147.562 77.9813 145.918 78.6045C144.293 79.2204 143.794 79.5339 143.101 80.3719ZM169.175 69.9437C169.316 70.0231 169.34 70.2925 169.227 70.5423C169.114 70.7922 169.149 71.2982 169.304 71.6669C169.531 72.2045 169.812 72.3413 170.728 72.3586C171.829 72.3792 171.875 72.3554 172.027 71.6915C172.243 70.7476 172.616 70.6765 172.614 71.58C172.613 72.2707 172.701 72.3242 173.963 72.395C174.706 72.4365 175.325 72.4233 175.338 72.3655C175.691 70.7947 175.686 70.4824 175.308 70.2669C175.084 70.1394 174.972 69.9514 175.059 69.8497C175.146 69.748 175.092 69.7501 174.938 69.8547C174.784 69.9593 174.564 69.9725 174.45 69.8842C174.336 69.7962 173.837 69.7779 173.343 69.8437C172.205 69.9955 171.96 70.0316 171.628 70.0971C171.48 70.1263 171.488 69.9754 171.646 69.7619C171.885 69.4384 171.846 69.4001 171.415 69.5314C171.13 69.6181 170.699 69.7881 170.457 69.9093C170.216 70.0302 169.77 70.0549 169.468 69.9643C169.165 69.8733 169.033 69.8642 169.175 69.9437ZM108.49 93.5872C108.561 93.7988 108.793 94.1009 109.007 94.2587C109.48 94.6084 109.329 94.2091 108.768 93.6265C108.499 93.347 108.404 93.3337 108.49 93.5872ZM111.232 92.8888C111.014 93.1509 110.816 93.3947 110.792 93.4304C110.769 93.4661 111 93.832 111.307 94.2439C111.613 94.6557 111.766 94.948 111.646 94.8937C111.526 94.8396 111.34 94.9496 111.232 95.1384C111.002 95.5432 110.565 95.4807 109.87 94.944C109.386 94.5694 109.38 94.5742 109.703 95.0797C109.928 95.4321 109.921 95.5811 109.683 95.5345C109.487 95.4961 109.12 95.5262 108.867 95.6009C108.442 95.7266 108.454 95.7719 109.023 96.1867C109.362 96.434 109.608 96.7943 109.571 96.9876C109.53 97.194 109.589 97.2263 109.712 97.0656C109.828 96.9154 110.038 96.8813 110.179 96.9897C110.932 97.5704 113.353 95.4219 113.222 94.2889C113.104 93.2717 112.477 92.2397 112.032 92.3305C111.811 92.3756 111.451 92.6269 111.232 92.8888ZM175.971 70.338C175.936 70.6463 175.951 71.2374 176.003 71.6515C176.088 72.3227 176.214 72.4082 177.163 72.4417C178.626 72.4934 178.78 72.388 178.864 71.275C178.931 70.3948 178.884 70.2762 178.369 70.0269C178.056 69.8752 177.576 69.8357 177.303 69.9388C177.03 70.0418 176.633 70.0477 176.421 69.9518C176.139 69.8242 176.018 69.9278 175.971 70.338ZM107.524 97.8657C107.663 98.2977 107.693 98.8369 107.591 99.0632C107.489 99.2899 107.499 99.5182 107.615 99.5702C107.99 99.7405 108.004 98.3841 107.633 97.7239C107.283 97.1011 107.279 97.1056 107.524 97.8657ZM183.412 69.9255C183.38 70.0852 183.474 70.239 183.62 70.2676C183.765 70.2961 183.822 70.1537 183.746 69.9511C183.585 69.5247 183.491 69.5177 183.412 69.9255ZM148.105 84.417C147.563 84.9245 147.324 86.4039 147.647 87.2586C147.769 87.5823 148.132 88.0269 148.453 88.2464C149.148 88.7206 150.837 88.7045 151.454 88.2179C152.108 87.7013 152.373 85.8714 151.924 84.9652C151.312 83.7273 149.171 83.42 148.105 84.417ZM165.952 78.774C165.446 79.1042 164.025 81.3114 163.139 83.1448C162.83 83.7826 162.263 84.862 161.878 85.5432C161.494 86.2245 160.438 88.2619 159.533 90.0711C157.527 94.0805 153.848 100.894 153.404 101.421C153.118 101.762 153.394 102.179 155.829 105.076C157.341 106.874 158.602 108.364 158.633 108.386C158.663 108.408 160.402 105.235 162.496 101.335C164.59 97.435 167.59 91.8754 169.161 88.9805C170.733 86.0853 172.161 83.2417 172.334 82.6612C172.7 81.4367 172.333 80.2047 171.398 79.5226C171.044 79.2644 170.825 79.0268 170.91 78.9946C171.081 78.9303 169.582 78.211 169.364 78.2529C168.831 78.3552 168.184 78.1776 168.342 77.9725C168.567 77.6809 166.634 78.3291 165.952 78.774ZM135.675 95.3153C135.002 95.8841 134.951 96.0596 135.254 96.7595C135.719 97.8318 135.861 97.8552 136.932 97.0374C137.81 96.3674 137.832 96.2971 137.396 95.5975C136.772 94.5979 136.564 94.564 135.675 95.3153ZM142.318 93.4103C143.058 93.6899 144.248 94.1988 144.963 94.5409C145.936 95.0075 146.261 95.057 146.263 94.7389C146.266 94.1874 142.168 92.4517 141.477 92.7118C141.067 92.866 141.227 92.9985 142.318 93.4103ZM132.588 97.8163C131.885 98.459 131.886 98.4056 132.547 99.1972C133.181 99.9558 133.417 99.9408 134.452 99.0749C135.21 98.4411 135.213 98.3335 134.492 97.518C133.972 96.9297 133.471 97.008 132.588 97.8163ZM129.937 99.9718C129.646 100.238 129.387 100.501 129.362 100.557C129.244 100.817 130.514 102.033 130.794 101.928C131.129 101.801 132.509 100.697 132.468 100.589C132.455 100.553 132.184 100.213 131.866 99.833C131.259 99.1061 130.851 99.1354 129.937 99.9718ZM127.219 102.213C126.715 102.67 126.681 102.855 127.016 103.342C127.641 104.251 127.957 104.284 128.927 103.544C129.808 102.872 129.808 102.869 129.205 102.09C128.563 101.26 128.248 101.28 127.219 102.213ZM124.762 104.266C123.902 104.99 123.916 104.925 124.449 105.745C124.958 106.527 125.484 106.478 126.393 105.564C126.989 104.964 126.982 104.867 126.287 104.08C125.745 103.467 125.704 103.472 124.762 104.266ZM122.111 106.422C121.25 107.146 121.263 107.078 121.815 107.927C122.269 108.624 122.344 108.638 123.141 108.18C124.238 107.549 124.34 107.27 123.765 106.469C123.207 105.69 122.99 105.684 122.111 106.422ZM119.339 108.784C118.578 109.564 118.576 109.579 119.214 110.243C119.856 110.91 119.862 110.91 120.702 110.214C121.166 109.829 121.505 109.45 121.454 109.371C121.404 109.292 121.167 108.914 120.928 108.531C120.425 107.725 120.362 107.735 119.339 108.784ZM116.525 111.098C115.823 111.739 115.826 111.69 116.457 112.445C116.996 113.091 117.03 113.092 117.908 112.463C118.808 111.818 118.87 111.391 118.176 110.611C117.834 110.227 117.307 110.382 116.525 111.098ZM113.685 113.356C113.161 113.907 113.174 114.02 113.853 114.788C114.303 115.297 114.389 115.294 115.064 114.744C116.056 113.936 116.125 113.73 115.64 113.03C115.182 112.37 114.518 112.481 113.685 113.356ZM111.155 115.449C110.523 115.994 110.557 116.469 111.272 117.095C111.648 117.423 111.803 117.396 112.423 116.891C113.43 116.072 113.482 115.871 112.848 115.241C112.245 114.641 112.068 114.663 111.155 115.449ZM108.504 117.605C107.901 118.125 107.931 118.735 108.584 119.227C109.129 119.638 110.686 118.606 110.453 117.989C109.99 116.762 109.577 116.68 108.504 117.605ZM105.849 119.81C105.32 120.289 105.297 120.454 105.671 121.053C105.908 121.433 106.148 121.765 106.203 121.79C106.259 121.815 106.683 121.542 107.146 121.184C107.839 120.648 107.928 120.45 107.651 120.064C107.466 119.807 107.259 119.454 107.192 119.281C107.047 118.91 106.684 119.053 105.849 119.81ZM88.6362 131.45C87.4203 133.839 86.2447 136.135 86.0235 136.553L85.6215 137.312L85.7025 136.631C85.8049 135.775 85.5257 135.884 84.9377 136.93C84.4394 137.817 84.5302 139.601 85.0634 139.4C85.2338 139.336 85.7171 138.601 86.1379 137.767C88.7658 132.558 90.7092 128.68 90.9595 128.149C91.2215 127.592 91.2174 126.968 90.9523 127.068C90.8942 127.09 89.8521 129.062 88.6362 131.45ZM121.615 118.307C122.168 118.189 122.404 118.293 122.566 118.723C122.728 119.152 122.639 119.343 122.213 119.487C121.809 119.623 121.615 119.981 121.541 120.728C121.484 121.306 121.378 121.639 121.306 121.467C121.09 120.957 120.761 121.261 120.655 122.07C120.578 122.66 120.457 122.792 120.104 122.67C119.748 122.547 119.72 122.59 119.969 122.87C120.22 123.152 120.123 123.285 119.499 123.521C119.067 123.684 118.76 123.938 118.815 124.085C118.871 124.232 118.754 124.321 118.556 124.282C118.359 124.243 118.296 124.292 118.418 124.389C118.541 124.487 118.641 124.868 118.64 125.237C118.64 125.739 118.498 125.915 118.073 125.937C117.633 125.96 117.548 126.082 117.695 126.473C117.935 127.108 117.026 128.498 116.157 128.826C115.796 128.962 115.544 129.187 115.596 129.326C115.649 129.465 115.812 129.534 115.959 129.478C116.11 129.421 116.193 129.547 116.149 129.768C116.023 130.395 116.166 130.759 116.988 131.905C118.709 134.303 121.316 135.803 123.434 135.613C126.602 135.328 130.315 132.696 131.903 129.609C132.979 127.517 133.027 126.182 132.112 123.818C131.099 121.198 129.278 119.17 126.961 118.079C125.204 117.252 123.859 117.23 122.004 117.999C121.268 118.304 121.134 118.41 121.615 118.307ZM163.659 104.074C162.46 105.302 161.783 106.895 161.601 108.921C161.393 111.228 161.79 112.224 163.958 114.837C167.024 118.531 166.718 118.313 169.158 118.554C171.902 118.825 174.659 118.115 176.212 116.737C178.011 115.141 178.847 111.802 178.419 107.929C178.022 104.339 175.718 102.294 171.655 101.926C168.056 101.601 165.372 102.322 163.659 104.074ZM120.326 123.498C120.378 123.637 120.535 123.708 120.674 123.655C120.813 123.603 120.884 123.446 120.831 123.307C120.779 123.168 120.622 123.097 120.483 123.15C120.344 123.202 120.273 123.359 120.326 123.498ZM121.951 124.455C120.7 125.672 120.723 127.189 122.009 128.348C123.025 129.263 123.81 129.359 124.902 128.701C126.2 127.92 126.581 127.07 126.148 125.922C125.574 124.401 124.773 123.633 123.786 123.658C122.717 123.685 122.764 123.664 121.951 124.455ZM116.414 127.285C116.38 127.456 116.474 127.551 116.621 127.495C116.768 127.44 116.845 127.281 116.793 127.142C116.74 127.002 116.647 126.908 116.586 126.931C116.525 126.954 116.447 127.113 116.414 127.285ZM168.153 108.537C167.505 109.134 167.686 111.243 168.461 112.115C168.884 112.59 170.316 112.728 171.234 112.381C172.454 111.921 172.884 109.774 172.009 108.512C171.404 107.639 169.113 107.654 168.153 108.537ZM115.166 129.705C115.397 130.309 115.559 130.502 115.613 130.24C115.692 129.859 115.121 128.639 114.901 128.722C114.848 128.742 114.967 129.184 115.166 129.705ZM200.01 106.924C199.87 107.643 200.703 111.485 201.619 114.351C202.462 116.986 203.363 120.128 205.283 127.124C205.48 127.844 206.462 130.983 207.466 134.1C208.469 137.217 209.643 141.064 210.075 142.648C210.507 144.233 211.022 146.119 211.219 146.839C211.815 149.015 212.577 153.696 212.722 156.075C212.797 157.308 212.912 158.34 212.977 158.37C213.199 158.471 214.132 155.779 214.382 154.311C214.52 153.504 214.559 152.032 214.469 151.04C214.29 149.067 212.928 142.343 212.333 140.497C211.803 138.852 208.761 129.172 207.951 126.551C207.577 125.341 207.209 124.18 207.131 123.971C207.055 123.762 205.82 120.121 204.389 115.881C201.878 108.446 201.755 108.143 200.928 107.394C200.456 106.966 200.043 106.755 200.01 106.924ZM169.434 122.761C169.558 123.052 169.64 123.089 169.645 122.857C169.649 122.647 169.558 122.432 169.442 122.38C169.326 122.327 169.323 122.499 169.434 122.761ZM154.027 130.172C153.734 130.44 153.362 130.917 153.2 131.233C152.596 132.41 154.182 134.74 155.591 134.744C156.466 134.747 157.745 133.826 158.092 132.944C158.487 131.94 157.471 130.086 156.292 129.655C155.333 129.305 154.856 129.414 154.027 130.172ZM138.876 140.674C139.085 140.678 139.3 140.587 139.352 140.471C139.405 140.355 139.233 140.352 138.971 140.463C138.681 140.586 138.644 140.669 138.876 140.674ZM170.31 188.107C169.698 188.492 169.695 188.521 170.268 188.634C170.757 188.73 170.907 188.658 171.044 188.262C171.26 187.634 171.113 187.603 170.31 188.107Z" fill="#F1CC4E" fill-opacity="0.22"/>
</svg>
