<svg width="98" height="82" viewBox="0 0 98 82" fill="none" xmlns="http://www.w3.org/2000/svg">
<path d="M16.3922 45.5171C16.3922 52.8932 16.3922 59.9719 16.3922 67.0582C21.5791 67.0582 26.6496 67.0582 31.9214 67.0582C27.6974 59.1582 23.9239 51.1494 16.3922 45.5171Z" fill="url(#paint0_linear_1_25)"/>
<path d="M7.62664 32.6185C7.62158 32.0985 8.16191 31.7517 8.63391 31.9719C12.8996 33.9624 18.47 37.1158 24.1428 42.0585C30.1674 47.3074 34.1801 52.7184 36.7223 56.7639C36.7969 56.8816 36.964 56.8929 37.0538 56.7854C38.8722 54.6127 40.5944 52.5551 42.3344 50.4748C42.3976 50.3989 42.3976 50.2875 42.3344 50.2116C41.4018 49.0841 40.5527 48.0376 39.6783 47.0126C35.6011 42.2281 31.3645 37.6055 26.4598 33.6321C22.9318 30.7736 19.071 28.4832 14.9736 26.5522C11.5621 24.9438 8.93508 22.4978 8.23024 18.6826C7.78102 16.2568 7.76837 13.7183 7.8367 11.2369C7.92275 8.15811 9.25649 6.999 12.3213 7.02684C14.6902 7.04835 17.059 7.24069 19.4266 7.22551C24.4326 7.19387 29.4373 7.10403 34.442 6.98128C36.8412 6.92181 38.7318 7.72028 39.9491 9.8487C42.7507 14.7433 46.1293 19.2178 49.9648 23.3342C52.4286 25.9777 55.0429 28.4806 57.6028 31.0532C57.6737 31.1241 57.7851 31.1342 57.8673 31.0747C65.0941 25.903 72.1209 20.873 79.4299 15.6418C79.5843 15.5317 79.5185 15.2875 79.33 15.2697C78.3265 15.1761 77.5673 15.1014 76.8067 15.042C74.0115 14.8218 71.2136 14.4206 68.4196 14.4346C63.9856 14.4586 60.388 16.3377 57.799 20.01C57.6282 20.2529 57.4358 20.4807 57.2257 20.7363C57.141 20.8401 56.979 20.8363 56.9005 20.7262C53.7345 16.3403 50.6367 12.0493 47.434 7.61399C47.3391 7.48239 47.4264 7.2989 47.5884 7.28878C48.0148 7.26347 48.3147 7.24196 48.6159 7.24196C60.9676 7.23943 73.3205 7.23943 85.6722 7.24196C86.1113 7.24196 86.5542 7.23689 86.9895 7.28751C88.3549 7.44569 89.4862 8.4036 89.5292 9.71077C89.6342 12.8617 89.6431 16.0163 89.6203 19.1697C89.6102 20.6503 88.7117 21.5728 87.3767 22.0992C72.8498 27.834 62.3152 38.3534 53.0587 50.5912C53.0043 50.6633 53.0031 50.7646 53.0575 50.838C54.8822 53.3245 56.688 55.787 58.4735 58.2204C58.5582 58.3368 58.7341 58.3292 58.8113 58.209C60.9663 54.8265 62.929 51.5187 65.1308 48.3767C70.8517 40.2123 78.1101 33.9384 87.6665 30.6053C89.4533 29.9827 89.9544 30.337 89.9936 32.3174C90.0227 33.8106 89.9987 35.305 90.0037 36.7995C90.043 48.0022 90.1088 59.2061 90.1075 70.4088C90.1075 73.3344 88.6333 74.7618 85.6912 74.7758C78.7023 74.8087 71.7135 74.7618 64.7246 74.7631C61.5598 74.7644 59.072 73.585 57.2675 70.8973C55.2644 67.9147 53.1296 65.022 51.0569 62.0862C50.0888 60.7145 49.1347 59.3352 48.1148 57.8724C48.0376 57.761 47.8731 57.7534 47.7858 57.8585C46.5988 59.2947 45.5637 60.6057 44.4489 61.847C43.8807 62.481 43.9111 62.9771 44.2958 63.6857C47.4669 69.5306 50.6026 75.3958 53.7471 81.2547C53.8572 81.4597 53.9648 81.6672 54.0761 81.8874C54.1116 81.9557 54.1824 82 54.2584 82H87.8614C93.2672 82 97.6494 77.6179 97.6494 72.212V9.78797C97.6494 4.38212 93.2672 0 87.8614 0H9.78797C4.38212 0 0 4.38212 0 9.78797V72.2095C0 77.6153 4.38212 81.9975 9.78797 81.9975H43.7529C43.7263 81.9393 43.701 81.8811 43.677 81.8152C43.081 80.2221 42.3344 78.6808 41.7928 77.0712C41.05 74.8605 39.6353 74.1076 37.3082 74.1911C29.3234 74.4771 21.3323 74.6328 13.3425 74.7517C11.5115 74.7796 10.2157 74.443 9.33368 73.6508C9.23625 73.5635 9.08187 73.504 8.92749 73.3699C7.97083 72.5347 7.99361 71.1187 7.99488 70.61C7.99994 68.8967 7.81645 53.6801 7.62664 32.6185Z" fill="url(#paint1_linear_1_25)"/>
<path d="M52.545 38.2015C51.1809 36.7526 49.9041 35.429 48.6627 34.0737C44.6894 29.7372 40.535 25.5474 36.8223 20.9957C33.5132 16.9388 29.6385 14.3548 24.3516 14.2384C21.6981 14.1802 19.0394 14.3459 16.3833 14.4105C16.3454 14.5471 16.3062 14.6825 16.2682 14.8192C26.7407 24.0668 37.2146 33.3145 47.715 42.5874C49.4081 41.0487 50.9519 39.6479 52.545 38.2015Z" fill="url(#paint2_linear_1_25)"/>
<path d="M81.2961 42.7418C73.3595 49.2676 68.6585 57.618 65.0217 66.7733C70.5465 66.7733 75.8865 66.7733 81.2961 66.7733C81.2961 58.8012 81.2961 50.9189 81.2961 42.7418Z" fill="url(#paint3_linear_1_25)"/>
<defs>
<linearGradient id="paint0_linear_1_25" x1="-12.5448" y1="29.9127" x2="52.7837" y2="89.2368" gradientUnits="userSpaceOnUse">
<stop stop-color="#F1CC4E"/>
<stop offset="1" stop-color="#EEA033"/>
</linearGradient>
<linearGradient id="paint1_linear_1_25" x1="9.72749" y1="5.49707" x2="74.9637" y2="64.7373" gradientUnits="userSpaceOnUse">
<stop stop-color="#F1CC4E"/>
<stop offset="1" stop-color="#EEA033"/>
</linearGradient>
<linearGradient id="paint2_linear_1_25" x1="11.1933" y1="3.77174" x2="76.5218" y2="63.0958" gradientUnits="userSpaceOnUse">
<stop stop-color="#F1CC4E"/>
<stop offset="1" stop-color="#EEA033"/>
</linearGradient>
<linearGradient id="paint3_linear_1_25" x1="13.8226" y1="0.875922" x2="79.1511" y2="60.2" gradientUnits="userSpaceOnUse">
<stop stop-color="#F1CC4E"/>
<stop offset="1" stop-color="#EEA033"/>
</linearGradient>
</defs>
</svg>
