<svg width="33" height="32" viewBox="0 0 33 32" fill="none" xmlns="http://www.w3.org/2000/svg">
<g clip-path="url(#clip0_58_51)">
<path d="M20.05 17C20.8 17 21.46 16.59 21.8 15.97L25.38 9.48C25.75 8.82 25.27 8 24.51 8H9.71L8.77 6H5.5V8H7.5L11.1 15.59L9.75 18.03C9.02 19.37 9.98 21 11.5 21H23.5V19H11.5L12.6 17H20.05ZM10.66 10H22.81L20.05 15H13.03L10.66 10ZM11.5 22C10.4 22 9.51 22.9 9.51 24C9.51 25.1 10.4 26 11.5 26C12.6 26 13.5 25.1 13.5 24C13.5 22.9 12.6 22 11.5 22ZM21.5 22C20.4 22 19.51 22.9 19.51 24C19.51 25.1 20.4 26 21.5 26C22.6 26 23.5 25.1 23.5 24C23.5 22.9 22.6 22 21.5 22Z" fill="#9F9F9F"/>
</g>
<defs>
<clipPath id="clip0_58_51">
<rect width="24" height="24" fill="white" transform="translate(4.5 4)"/>
</clipPath>
</defs>
</svg>
