<svg width="33" height="32" viewBox="0 0 33 32" fill="none" xmlns="http://www.w3.org/2000/svg">
<g clip-path="url(#clip0_58_61)">
<path d="M16.5 6C10.98 6 6.5 10.48 6.5 16C6.5 21.52 10.98 26 16.5 26C22.02 26 26.5 21.52 26.5 16C26.5 10.48 22.02 6 16.5 6ZM11.57 22.28C12 21.38 14.62 20.5 16.5 20.5C18.38 20.5 21.01 21.38 21.43 22.28C20.07 23.36 18.36 24 16.5 24C14.64 24 12.93 23.36 11.57 22.28ZM22.86 20.83C21.43 19.09 17.96 18.5 16.5 18.5C15.04 18.5 11.57 19.09 10.14 20.83C9.12 19.49 8.5 17.82 8.5 16C8.5 11.59 12.09 8 16.5 8C20.91 8 24.5 11.59 24.5 16C24.5 17.82 23.88 19.49 22.86 20.83ZM16.5 10C14.56 10 13 11.56 13 13.5C13 15.44 14.56 17 16.5 17C18.44 17 20 15.44 20 13.5C20 11.56 18.44 10 16.5 10ZM16.5 15C15.67 15 15 14.33 15 13.5C15 12.67 15.67 12 16.5 12C17.33 12 18 12.67 18 13.5C18 14.33 17.33 15 16.5 15Z" fill="#9F9F9F"/>
</g>
<defs>
<clipPath id="clip0_58_61">
<rect width="24" height="24" fill="white" transform="translate(4.5 4)"/>
</clipPath>
</defs>
</svg>
