<svg width="54" height="24" viewBox="0 0 54 24" fill="none" xmlns="http://www.w3.org/2000/svg">
<path d="M53.5 12C53.5 18.3443 48.2775 23.5 41.8195 23.5C38.7473 23.5 35.9811 22.3477 34.0149 20.4411C33.8481 20.2793 33.6844 20.1116 33.5199 19.9431C32.5379 18.9374 31.5251 17.9 29.6391 17.9H4.49412C4.49072 17.8996 4.48687 17.8991 4.48258 17.8985C4.4576 17.8951 4.41786 17.8892 4.36547 17.8795C4.26054 17.86 4.10579 17.8255 3.91789 17.7666C3.54119 17.6486 3.03817 17.4345 2.53595 17.0522C1.55323 16.304 0.5 14.8564 0.5 12C0.5 9.14363 1.55323 7.69596 2.53595 6.94784C3.03817 6.5655 3.54119 6.35144 3.91789 6.23336C4.10579 6.17446 4.26054 6.13998 4.36547 6.12052C4.41786 6.1108 4.4576 6.10486 4.48258 6.10151C4.48687 6.10093 4.49072 6.10043 4.49413 6.1H29.6391C30.0593 6.1 30.494 5.97267 30.9012 5.79629C31.313 5.61784 31.7273 5.37561 32.1148 5.11482C32.8862 4.59576 33.5896 3.97738 34.0127 3.56113C36.0522 1.66083 38.7556 0.5 41.8195 0.5C48.2775 0.5 53.5 5.65574 53.5 12Z" stroke="#F1CC4E"/>
</svg>
